
<svg xmlns="http://www.w3.org/2000/svg" xmlns:xlink="http://www.w3.org/1999/xlink" width="389" zoomAndPan="magnify" viewBox="0 0 291.75 291.749991" height="389" preserveAspectRatio="xMidYMid meet" version="1.0"><defs><g/><clipPath id="a589a3b55d"><path d="M 267 28 L 291.5 28 L 291.5 270 L 267 270 Z M 267 28 " clip-rule="nonzero"/></clipPath></defs><path fill="#f5edea" d="M 151.640625 46.375 C 89.976562 46.375 39.992188 96.378906 39.992188 158.066406 C 39.992188 219.753906 89.976562 269.761719 151.640625 269.761719 C 213.300781 269.761719 263.285156 219.753906 263.285156 158.066406 C 263.285156 96.378906 213.289062 46.375 151.640625 46.375 Z M 151.640625 246.601562 C 102.761719 246.601562 63.132812 206.953125 63.132812 158.054688 C 63.132812 109.160156 102.761719 69.511719 151.640625 69.511719 C 200.515625 69.511719 240.148438 109.160156 240.148438 158.054688 C 240.148438 206.953125 200.515625 246.601562 151.640625 246.601562 Z M 151.640625 246.601562 " fill-opacity="1" fill-rule="nonzero"/><path fill="#f5edea" d="M 229.804688 158.054688 C 229.804688 159.335938 229.773438 160.613281 229.710938 161.894531 C 229.648438 163.171875 229.554688 164.449219 229.429688 165.722656 C 229.304688 166.996094 229.148438 168.265625 228.960938 169.53125 C 228.773438 170.796875 228.554688 172.058594 228.304688 173.3125 C 228.054688 174.566406 227.773438 175.816406 227.460938 177.058594 C 227.152344 178.296875 226.8125 179.53125 226.441406 180.757812 C 226.066406 181.980469 225.667969 183.195312 225.234375 184.402344 C 224.804688 185.605469 224.34375 186.800781 223.855469 187.980469 C 223.367188 189.164062 222.847656 190.332031 222.300781 191.492188 C 221.753906 192.648438 221.179688 193.789062 220.574219 194.917969 C 219.972656 196.046875 219.34375 197.160156 218.683594 198.257812 C 218.027344 199.355469 217.34375 200.4375 216.632812 201.5 C 215.921875 202.566406 215.183594 203.609375 214.421875 204.640625 C 213.660156 205.667969 212.875 206.675781 212.0625 207.664062 C 211.25 208.652344 210.414062 209.621094 209.558594 210.570312 C 208.699219 211.519531 207.816406 212.445312 206.910156 213.351562 C 206.007812 214.253906 205.082031 215.136719 204.132812 215.996094 C 203.183594 216.855469 202.214844 217.691406 201.226562 218.503906 C 200.238281 219.316406 199.230469 220.101562 198.203125 220.867188 C 197.175781 221.628906 196.128906 222.363281 195.066406 223.074219 C 194.003906 223.785156 192.921875 224.472656 191.824219 225.128906 C 190.726562 225.785156 189.613281 226.417969 188.488281 227.019531 C 187.359375 227.625 186.214844 228.199219 185.058594 228.746094 C 183.902344 229.292969 182.734375 229.8125 181.550781 230.300781 C 180.371094 230.792969 179.175781 231.25 177.972656 231.683594 C 176.769531 232.113281 175.554688 232.515625 174.332031 232.886719 C 173.105469 233.257812 171.875 233.601562 170.632812 233.910156 C 169.390625 234.222656 168.144531 234.5 166.890625 234.75 C 165.632812 235 164.375 235.21875 163.109375 235.40625 C 161.84375 235.59375 160.574219 235.753906 159.300781 235.878906 C 158.027344 236.003906 156.753906 236.097656 155.476562 236.160156 C 154.199219 236.222656 152.917969 236.253906 151.640625 236.253906 C 150.359375 236.253906 149.082031 236.222656 147.804688 236.160156 C 146.527344 236.097656 145.25 236.003906 143.976562 235.878906 C 142.707031 235.753906 141.4375 235.59375 140.171875 235.40625 C 138.90625 235.21875 137.644531 235 136.390625 234.75 C 135.136719 234.5 133.886719 234.222656 132.648438 233.910156 C 131.40625 233.601562 130.171875 233.257812 128.949219 232.886719 C 127.726562 232.515625 126.511719 232.113281 125.308594 231.683594 C 124.101562 231.25 122.910156 230.792969 121.726562 230.300781 C 120.546875 229.8125 119.375 229.292969 118.21875 228.746094 C 117.0625 228.199219 115.921875 227.625 114.792969 227.019531 C 113.664062 226.417969 112.550781 225.785156 111.453125 225.128906 C 110.359375 224.472656 109.277344 223.785156 108.214844 223.074219 C 107.148438 222.363281 106.105469 221.628906 105.078125 220.867188 C 104.050781 220.101562 103.042969 219.316406 102.050781 218.503906 C 101.0625 217.691406 100.09375 216.855469 99.148438 215.996094 C 98.199219 215.136719 97.273438 214.253906 96.367188 213.351562 C 95.464844 212.445312 94.582031 211.519531 93.722656 210.570312 C 92.863281 209.621094 92.027344 208.652344 91.21875 207.664062 C 90.40625 206.675781 89.617188 205.667969 88.855469 204.640625 C 88.09375 203.609375 87.359375 202.566406 86.648438 201.5 C 85.9375 200.4375 85.253906 199.355469 84.59375 198.257812 C 83.9375 197.160156 83.308594 196.046875 82.703125 194.917969 C 82.101562 193.789062 81.527344 192.648438 80.980469 191.488281 C 80.433594 190.332031 79.914062 189.164062 79.425781 187.980469 C 78.933594 186.800781 78.472656 185.605469 78.042969 184.402344 C 77.613281 183.195312 77.210938 181.980469 76.839844 180.757812 C 76.46875 179.53125 76.128906 178.296875 75.816406 177.058594 C 75.507812 175.816406 75.226562 174.566406 74.976562 173.3125 C 74.726562 172.058594 74.507812 170.796875 74.320312 169.53125 C 74.132812 168.265625 73.976562 166.996094 73.851562 165.722656 C 73.726562 164.449219 73.632812 163.171875 73.570312 161.894531 C 73.503906 160.613281 73.472656 159.335938 73.472656 158.054688 C 73.472656 156.777344 73.503906 155.496094 73.570312 154.21875 C 73.632812 152.941406 73.726562 151.664062 73.851562 150.390625 C 73.976562 149.117188 74.132812 147.847656 74.320312 146.582031 C 74.507812 145.316406 74.726562 144.054688 74.976562 142.800781 C 75.226562 141.546875 75.507812 140.296875 75.816406 139.054688 C 76.128906 137.816406 76.46875 136.582031 76.839844 135.355469 C 77.210938 134.132812 77.613281 132.917969 78.042969 131.710938 C 78.472656 130.507812 78.933594 129.3125 79.425781 128.132812 C 79.914062 126.949219 80.433594 125.78125 80.980469 124.621094 C 81.527344 123.464844 82.101562 122.324219 82.703125 121.195312 C 83.308594 120.066406 83.9375 118.953125 84.59375 117.855469 C 85.253906 116.757812 85.9375 115.675781 86.648438 114.613281 C 87.359375 113.546875 88.09375 112.503906 88.855469 111.472656 C 89.617188 110.445312 90.40625 109.4375 91.21875 108.449219 C 92.027344 107.460938 92.863281 106.492188 93.722656 105.542969 C 94.582031 104.59375 95.464844 103.667969 96.367188 102.761719 C 97.273438 101.855469 98.199219 100.976562 99.148438 100.117188 C 100.09375 99.257812 101.0625 98.421875 102.050781 97.609375 C 103.042969 96.796875 104.050781 96.007812 105.078125 95.246094 C 106.105469 94.484375 107.148438 93.75 108.214844 93.039062 C 109.277344 92.328125 110.359375 91.640625 111.453125 90.984375 C 112.550781 90.324219 113.664062 89.695312 114.792969 89.09375 C 115.921875 88.488281 117.0625 87.914062 118.21875 87.367188 C 119.375 86.820312 120.546875 86.300781 121.726562 85.8125 C 122.910156 85.320312 124.101562 84.859375 125.308594 84.429688 C 126.511719 84 127.726562 83.597656 128.949219 83.226562 C 130.171875 82.855469 131.40625 82.511719 132.648438 82.203125 C 133.886719 81.890625 135.136719 81.609375 136.390625 81.359375 C 137.644531 81.113281 138.90625 80.894531 140.171875 80.707031 C 141.4375 80.515625 142.707031 80.359375 143.976562 80.234375 C 145.25 80.109375 146.527344 80.015625 147.804688 79.953125 C 149.082031 79.890625 150.359375 79.859375 151.640625 79.859375 C 152.917969 79.859375 154.199219 79.890625 155.476562 79.953125 C 156.753906 80.015625 158.027344 80.109375 159.300781 80.234375 C 160.574219 80.359375 161.84375 80.515625 163.109375 80.707031 C 164.375 80.894531 165.632812 81.113281 166.890625 81.359375 C 168.144531 81.609375 169.390625 81.890625 170.632812 82.203125 C 171.875 82.511719 173.105469 82.855469 174.332031 83.226562 C 175.554688 83.597656 176.769531 84 177.972656 84.429688 C 179.175781 84.859375 180.371094 85.320312 181.550781 85.8125 C 182.734375 86.300781 183.902344 86.820312 185.058594 87.367188 C 186.214844 87.914062 187.359375 88.488281 188.488281 89.09375 C 189.613281 89.695312 190.726562 90.324219 191.824219 90.984375 C 192.921875 91.640625 194.003906 92.328125 195.066406 93.039062 C 196.128906 93.75 197.175781 94.484375 198.203125 95.246094 C 199.230469 96.007812 200.238281 96.796875 201.226562 97.609375 C 202.214844 98.421875 203.183594 99.257812 204.132812 100.117188 C 205.082031 100.976562 206.007812 101.855469 206.910156 102.761719 C 207.816406 103.667969 208.699219 104.59375 209.558594 105.542969 C 210.414062 106.492188 211.25 107.460938 212.0625 108.449219 C 212.875 109.4375 213.660156 110.445312 214.421875 111.472656 C 215.183594 112.503906 215.921875 113.546875 216.632812 114.613281 C 217.34375 115.675781 218.027344 116.757812 218.683594 117.855469 C 219.34375 118.953125 219.972656 120.066406 220.574219 121.195312 C 221.179688 122.324219 221.753906 123.464844 222.300781 124.621094 C 222.847656 125.78125 223.367188 126.949219 223.855469 128.132812 C 224.34375 129.3125 224.804688 130.507812 225.234375 131.710938 C 225.667969 132.917969 226.066406 134.132812 226.441406 135.355469 C 226.8125 136.582031 227.152344 137.816406 227.460938 139.054688 C 227.773438 140.296875 228.054688 141.546875 228.304688 142.800781 C 228.554688 144.054688 228.773438 145.316406 228.960938 146.582031 C 229.148438 147.847656 229.304688 149.117188 229.429688 150.390625 C 229.554688 151.664062 229.648438 152.941406 229.710938 154.21875 C 229.773438 155.496094 229.804688 156.777344 229.804688 158.054688 Z M 229.804688 158.054688 " fill-opacity="1" fill-rule="nonzero"/><g clip-path="url(#a589a3b55d)"><path fill="#f5edea" d="M 278.511719 38.878906 C 264.542969 63.980469 264.871094 88.667969 275.179688 120.546875 C 275.179688 120.546875 279.789062 135.597656 276.375 148.21875 C 275.507812 151.429688 275.179688 154.765625 275.179688 158.089844 L 275.167969 261.414062 C 275.167969 266.277344 279.394531 270.214844 284.355469 269.703125 C 288.675781 269.261719 291.828125 265.363281 291.828125 261.019531 L 291.828125 178.074219 L 291.839844 151.925781 L 291.828125 38.886719 C 291.851562 38.878906 291.851562 14.914062 278.511719 38.878906 Z M 278.511719 38.878906 " fill-opacity="1" fill-rule="nonzero"/></g><path fill="#f5edea" d="M 36.09375 39.90625 L 35.628906 39.90625 C 33.46875 39.90625 31.730469 84.765625 31.730469 84.765625 C 31.730469 86.644531 30.351562 88.238281 28.496094 88.507812 C 26.226562 88.835938 24.179688 87.074219 24.179688 84.765625 C 24.179688 84.765625 22.425781 39.90625 20.277344 39.90625 L 19.757812 39.90625 C 17.601562 39.90625 15.859375 84.800781 15.859375 84.800781 C 15.859375 87.085938 13.835938 88.847656 11.574219 88.542969 L 11.113281 88.476562 C 9.246094 88.214844 7.84375 86.621094 7.84375 84.734375 C 7.84375 84.734375 6.09375 39.894531 3.945312 39.894531 C 1.785156 39.894531 0.046875 88.804688 0.046875 88.804688 C 0.046875 94.910156 1.390625 104.320312 8.015625 109.78125 C 11.960938 113.039062 12.875 116.589844 12.953125 118.070312 L 12.953125 261.394531 C 12.953125 265.972656 16.707031 269.726562 21.285156 269.726562 C 25.863281 269.726562 29.617188 265.972656 29.617188 261.394531 L 29.617188 118.691406 L 29.628906 118.691406 C 29.605469 118.375 29.628906 118.09375 29.617188 117.789062 L 29.617188 116.769531 C 29.808594 112.742188 31.457031 110.460938 33.253906 108.957031 C 40.039062 103.300781 40.039062 94.457031 40.039062 88.871094 C 39.992188 88.871094 38.25 39.90625 36.09375 39.90625 Z M 36.09375 39.90625 " fill-opacity="1" fill-rule="nonzero"/><g fill="#f2eddb" fill-opacity="1"><g transform="translate(129.240607, 182.23711)"><g><path d="M 11.28125 -19.53125 C 11.28125 -21.738281 11.679688 -23.664062 12.484375 -25.3125 C 13.296875 -26.957031 14.265625 -28.296875 15.390625 -29.328125 C 16.523438 -30.359375 17.976562 -31.488281 19.75 -32.71875 C 21.519531 -33.945312 22.820312 -35.003906 23.65625 -35.890625 C 24.488281 -36.773438 24.90625 -37.828125 24.90625 -39.046875 C 24.90625 -41.015625 23.429688 -42 20.484375 -42 C 18.171875 -42 15.585938 -41.554688 12.734375 -40.671875 C 9.890625 -39.785156 7.289062 -38.78125 4.9375 -37.65625 L 1.03125 -52.6875 C 4.269531 -54.207031 8.023438 -55.53125 12.296875 -56.65625 C 16.578125 -57.789062 20.828125 -58.359375 25.046875 -58.359375 C 29.222656 -58.359375 32.867188 -57.734375 35.984375 -56.484375 C 39.109375 -55.234375 41.503906 -53.453125 43.171875 -51.140625 C 44.847656 -48.828125 45.6875 -46.148438 45.6875 -43.109375 C 45.6875 -40.453125 45.253906 -38.210938 44.390625 -36.390625 C 43.535156 -34.578125 42.492188 -33.09375 41.265625 -31.9375 C 40.035156 -30.789062 38.414062 -29.53125 36.40625 -28.15625 C 34.726562 -26.96875 33.382812 -25.929688 32.375 -25.046875 C 31.375 -24.171875 30.539062 -23.09375 29.875 -21.8125 C 29.21875 -20.53125 28.890625 -19.007812 28.890625 -17.25 L 28.890625 -16.140625 L 11.28125 -16.140625 Z M 11.28125 0 L 11.28125 -12.078125 L 28.8125 -12.078125 L 28.8125 0 Z M 11.28125 0 "/></g></g></g><path stroke-linecap="butt" transform="matrix(0.75, 0, 0, 0.75, 127.178906, 121.377752)" fill="none" stroke-linejoin="miter" d="M 15.037502 56.975503 C 15.037502 54.017169 15.57396 51.444252 16.646877 49.251544 C 17.73021 47.064043 19.027085 45.282793 20.532294 43.907793 C 22.032294 42.532793 23.969794 41.017168 26.334378 39.371334 C 28.683336 37.741126 30.412503 36.340084 31.51667 35.173417 C 32.636462 33.991125 33.193753 32.574459 33.193753 30.928625 C 33.193753 28.308833 31.23542 26.996333 27.318753 26.996333 C 24.230211 26.996333 20.787502 27.590083 16.98021 28.772375 C 13.193751 29.954667 9.719793 31.298417 6.573959 32.798417 L 1.365625 12.75154 C 5.698959 10.72029 10.714584 8.954664 16.407293 7.449456 C 22.100002 5.944247 27.76667 5.194247 33.412503 5.194247 C 38.975004 5.194247 43.83438 6.032789 47.99063 7.715081 C 52.152089 9.376539 55.339589 11.75154 57.563548 14.834873 C 59.803131 17.90779 60.917715 21.470291 60.917715 25.532791 C 60.917715 29.06925 60.344798 32.048417 59.193756 34.480709 C 58.042714 36.892167 56.641673 38.876543 54.995839 40.428626 C 53.365631 41.965085 51.204172 43.642168 48.52188 45.465085 C 46.297922 47.048418 44.516671 48.428627 43.172921 49.616127 C 41.829171 50.782794 40.719796 52.220294 39.839587 53.928627 C 38.959379 55.626544 38.516671 57.657795 38.516671 60.022378 L 38.516671 61.48592 L 15.037502 61.48592 Z M 15.037502 83.001547 L 15.037502 66.881754 L 38.422921 66.881754 L 38.422921 83.001547 Z M 15.037502 83.001547 " stroke="#cbc5c3" stroke-width="2.271953" stroke-opacity="1" stroke-miterlimit="4"/></svg>